<?xml version="1.0" standalone="no"?>
<!DOCTYPE svg PUBLIC "-//W3C//DTD SVG 20010904//EN"
 "http://www.w3.org/TR/2001/REC-SVG-20010904/DTD/svg10.dtd">
<svg version="1.0" xmlns="http://www.w3.org/2000/svg"
 width="245.000000pt" height="200.000000pt" viewBox="0 0 245.000000 200.000000"
 preserveAspectRatio="xMidYMid meet">

<g transform="translate(0.000000,200.000000) scale(0.100000,-0.100000)"
fill="#000000" stroke="none">
<path d="M1192 1984 c-94 -25 -150 -62 -179 -119 -10 -18 -18 -67 -21 -121
l-5 -92 114 29 c62 17 120 28 129 26 8 -1 -23 -13 -70 -24 -143 -37 -315 -98
-315 -113 0 -14 7 -17 108 -45 l57 -16 0 -102 c1 -91 4 -111 34 -187 42 -108
63 -125 154 -125 83 1 128 23 198 97 76 80 86 105 95 237 8 123 16 141 66 141
71 0 145 121 98 160 -8 7 -38 17 -66 24 l-52 11 -28 84 c-16 46 -36 92 -45
103 -25 27 -86 23 -207 -16 -59 -18 -105 -30 -102 -26 3 4 50 23 106 41 74 24
96 35 83 40 -30 12 -94 9 -152 -7z m251 -362 c37 -36 37 -36 31 -102 -8 -100
-9 -102 -75 -144 l-61 -39 -24 31 c-26 32 -91 59 -107 43 -15 -15 11 -49 43
-56 49 -11 69 -68 28 -79 -16 -4 -27 0 -37 14 -16 24 -69 27 -77 5 -6 -15 -35
-21 -46 -9 -12 11 5 44 23 44 11 0 18 4 16 9 -1 5 6 16 15 23 9 7 18 27 20 43
2 25 -1 31 -19 33 -15 2 -22 -1 -19 -10 2 -7 -18 -32 -44 -56 l-49 -43 -14 23
c-8 13 -17 40 -20 61 -7 47 18 77 64 77 24 0 39 9 63 36 61 72 92 97 146 120
67 29 93 24 143 -24z"/>
<path d="M1257 1613 c-15 -15 -3 -18 68 -18 73 0 92 6 59 19 -21 8 -119 8
-127 -1z"/>
<path d="M1288 1573 c-24 -6 -23 -20 3 -28 13 -4 25 -2 29 5 5 8 18 10 36 6
20 -5 26 -4 19 3 -13 13 -63 21 -87 14z"/>
<path d="M1215 1440 c-4 -6 3 -10 14 -10 25 0 27 6 6 13 -8 4 -17 2 -20 -3z"/>
<path d="M1529 1533 c-12 -15 -12 -16 4 -10 10 4 23 7 28 7 5 0 9 5 9 10 0 16
-26 12 -41 -7z"/>
<path d="M1510 1491 c0 -11 5 -23 10 -26 6 -4 10 5 10 19 0 14 -4 26 -10 26
-5 0 -10 -9 -10 -19z"/>
<path d="M1551 1458 c-1 -10 -5 -18 -11 -18 -5 0 -10 -5 -10 -12 0 -8 6 -7 16
4 9 9 14 22 11 30 -4 9 -6 7 -6 -4z"/>
<path d="M830 1062 c-69 -30 -126 -57 -128 -58 -2 -1 6 -17 17 -35 50 -85 65
-262 36 -415 -10 -51 -11 -81 -5 -89 19 -22 148 -76 246 -102 138 -36 340 -38
459 -4 163 46 277 134 290 226 11 73 1 159 -35 289 -41 148 -54 163 -179 211
-52 19 -95 34 -97 32 -2 -1 4 -41 12 -87 20 -108 13 -220 -19 -320 l-23 -75
-17 74 c-10 41 -28 94 -42 117 -19 32 -23 50 -19 76 10 51 32 80 55 73 10 -4
19 -4 19 0 0 10 -103 55 -125 55 -19 0 -125 -96 -125 -112 0 -4 15 -1 34 7 34
14 35 14 57 -13 19 -24 21 -35 15 -107 -3 -44 -6 -105 -6 -135 l0 -55 -20 30
c-65 95 -154 255 -200 358 -29 64 -58 117 -64 116 -6 0 -67 -26 -136 -57z"/>
<path d="M22 218 c-24 -24 -14 -58 23 -79 37 -22 47 -49 18 -49 -9 0 -25 7
-35 17 -17 15 -18 15 -18 -12 0 -16 3 -26 6 -22 3 3 16 2 29 -3 16 -6 29 -4
44 7 32 22 24 63 -16 88 -18 11 -32 26 -33 33 0 20 38 13 54 -10 16 -22 16
-22 16 8 0 28 -3 30 -38 32 -20 2 -43 -3 -50 -10z"/>
<path d="M137 223 c-4 -3 -7 -13 -7 -21 0 -11 3 -12 14 -2 8 6 24 10 35 8 19
-3 18 -6 -14 -58 -19 -30 -35 -61 -35 -67 0 -19 106 -18 113 1 4 11 -3 13 -34
9 l-40 -6 35 59 c20 33 36 65 36 72 0 13 -91 18 -103 5z"/>
<path d="M280 210 c-27 -27 -27 -93 0 -120 45 -45 110 -10 110 60 0 47 -27 80
-65 80 -14 0 -34 -9 -45 -20z m70 -19 c16 -31 12 -76 -9 -95 -21 -19 -35 -9
-46 34 -14 56 31 105 55 61z"/>
<path d="M415 150 c0 -74 2 -80 20 -80 18 0 20 5 17 40 -4 35 -1 40 16 40 11
0 23 -6 25 -12 3 -7 6 -1 6 13 1 23 -2 26 -24 21 -21 -3 -25 0 -25 18 0 19 4
22 35 18 24 -3 35 0 35 9 0 9 -16 13 -52 13 l-53 0 0 -80z"/>
<path d="M540 150 l0 -80 50 0 c38 0 50 4 50 15 0 12 -4 13 -19 5 -33 -17 -41
-12 -41 26 0 31 3 36 20 31 15 -4 20 0 20 13 0 13 -5 17 -20 13 -16 -4 -20 0
-20 17 0 19 4 22 30 18 20 -3 30 0 30 9 0 9 -15 13 -50 13 l-50 0 0 -80z"/>
<path d="M665 150 c0 -74 1 -80 21 -80 17 0 20 5 17 32 l-4 33 29 -33 c17 -19
38 -32 52 -32 l24 0 -28 29 -28 29 21 21 c26 26 26 36 1 61 -14 14 -33 20 -62
20 l-43 0 0 -80z m80 30 c0 -18 -6 -26 -22 -28 -20 -3 -23 1 -23 28 0 27 3 31
23 28 16 -2 22 -10 22 -28z"/>
<path d="M909 150 c19 -60 30 -80 43 -80 16 0 38 50 38 88 0 31 19 7 30 -38 9
-38 17 -50 31 -50 14 0 23 16 40 73 11 39 23 75 26 80 2 4 -2 7 -10 7 -9 0
-19 -21 -27 -60 -7 -33 -16 -58 -20 -55 -3 2 -13 29 -20 60 -17 71 -38 70 -60
-2 -9 -29 -18 -54 -21 -57 -8 -8 -30 94 -23 105 3 5 -8 9 -23 9 l-29 0 25 -80z"/>
<path d="M1205 150 c0 -76 1 -80 23 -80 18 0 22 6 22 33 l1 32 27 -33 c16 -19
36 -32 50 -32 22 0 22 2 -13 45 -38 46 -38 52 -2 93 l20 22 -21 0 c-12 0 -22
-6 -22 -12 0 -7 -11 -26 -24 -43 l-25 -30 6 43 c5 39 4 42 -18 42 -23 0 -24
-2 -24 -80z"/>
<path d="M1398 150 c-25 -77 -26 -80 -7 -80 11 0 17 5 14 10 -11 18 6 50 26
50 19 0 42 -37 32 -53 -2 -4 8 -7 22 -7 14 0 24 3 22 8 -3 4 -15 40 -26 80
-30 100 -48 98 -83 -8z m40 1 c-15 -5 -19 4 -11 24 6 18 7 18 13 -1 4 -10 3
-21 -2 -23z"/>
<path d="M1535 150 c0 -76 1 -80 22 -80 19 0 22 5 19 30 -3 25 0 30 18 30 30
0 66 27 66 50 0 27 -38 50 -85 50 l-40 0 0 -80z m89 44 c8 -20 -10 -44 -33
-44 -11 0 -16 9 -16 30 0 24 4 30 21 30 12 0 25 -7 28 -16z"/>
<path d="M1680 150 l0 -80 50 0 c38 0 50 4 50 15 0 13 -4 14 -20 5 -28 -15
-40 -5 -40 32 0 25 3 29 20 25 15 -4 20 0 20 13 0 13 -5 17 -20 13 -16 -4 -20
0 -20 17 0 20 4 22 34 17 28 -4 34 -3 29 9 -3 9 -21 14 -54 14 l-49 0 0 -80z"/>
<path d="M1805 150 l0 -80 53 0 c36 0 52 4 52 13 0 9 -11 12 -36 9 l-36 -4 4
71 c3 66 1 71 -17 71 -18 0 -20 -7 -20 -80z"/>
<path d="M1928 168 c4 -68 21 -98 57 -98 41 0 53 21 57 93 2 44 -1 67 -8 67
-7 0 -12 -25 -13 -62 -2 -67 -10 -84 -35 -75 -12 5 -16 22 -16 72 0 61 -1 65
-22 65 -22 0 -23 -3 -20 -62z"/>
<path d="M2074 205 c-16 -24 -15 -27 2 -46 11 -12 29 -25 42 -30 12 -5 22 -15
22 -24 0 -19 -34 -19 -54 0 -19 20 -21 19 -21 -9 0 -24 2 -25 56 -27 66 -1 64
80 -3 104 -10 4 -18 13 -18 22 0 23 35 18 53 -7 15 -23 15 -23 15 8 -1 29 -4
31 -39 32 -31 2 -42 -3 -55 -23z"/>
<path d="M2191 208 c0 -13 3 -17 6 -10 2 6 18 12 34 12 l29 0 -40 -65 c-22
-36 -40 -68 -40 -70 0 -3 27 -5 60 -5 45 0 60 4 60 14 0 11 -8 12 -35 6 -19
-4 -35 -6 -35 -3 0 2 16 32 35 64 19 33 35 64 35 70 0 5 -25 9 -55 9 -51 0
-55 -2 -54 -22z"/>
<path d="M2328 163 c5 -78 13 -93 52 -93 15 0 32 6 38 12 14 17 20 148 7 148
-6 0 -9 -19 -7 -45 6 -68 -4 -97 -31 -93 -20 3 -22 8 -22 71 0 61 -2 67 -20
67 -19 0 -21 -5 -17 -67z"/>
</g>
</svg>
